<?xml version="1.0" standalone="no"?>
<!DOCTYPE svg PUBLIC "-//W3C//DTD SVG 20010904//EN"
 "http://www.w3.org/TR/2001/REC-SVG-20010904/DTD/svg10.dtd">
<svg version="1.0" xmlns="http://www.w3.org/2000/svg"
 width="800.000000pt" height="796.000000pt" viewBox="0 0 800.000000 796.000000"
 preserveAspectRatio="xMidYMid meet">

<g transform="translate(0.000000,796.000000) scale(0.100000,-0.100000)"
fill="#000000" stroke="none">
<path d="M0 3980 l0 -3980 4000 0 4000 0 0 3980 0 3980 -4000 0 -4000 0 0
-3980z m3185 2275 c103 -247 247 -594 320 -770 316 -761 405 -978 401 -982 -5
-5 -2176 895 -2190 908 -6 5 14 18 45 31 96 39 281 135 374 193 311 195 547
450 720 777 47 91 109 226 129 282 3 10 8 17 10 15 2 -2 88 -206 191 -454z
m1960 398 c118 -314 364 -662 609 -859 160 -129 401 -272 596 -353 l55 -23
-70 -33 c-38 -17 -149 -65 -245 -105 -96 -40 -551 -229 -1010 -420 -459 -191
-846 -351 -859 -355 -18 -5 -23 -4 -18 6 7 20 290 699 624 1502 157 378 289
687 293 687 4 0 15 -21 25 -47z m-1235 -2448 c0 -7 -118 -294 -385 -935 -125
-300 -280 -673 -345 -830 -169 -406 -183 -440 -188 -436 -2 3 -25 54 -51 114
-133 308 -337 590 -566 781 -165 137 -462 313 -627 372 -21 7 -38 16 -38 19 0
3 332 144 738 313 405 169 897 374 1092 456 361 151 370 155 370 146z m640
-138 c702 -291 1826 -760 1839 -767 9 -5 -45 -35 -150 -87 -90 -44 -205 -105
-256 -136 -265 -165 -485 -385 -647 -647 -60 -95 -162 -297 -191 -373 -10 -26
-21 -50 -25 -52 -3 -2 -21 33 -40 78 -18 45 -152 368 -298 717 -208 501 -545
1314 -580 1399 -4 10 -1 13 9 9 8 -3 160 -67 339 -141z m-2750 -2576 c0 -249
-9 -236 170 -236 119 0 133 2 146 19 11 16 14 62 14 213 l0 193 75 0 75 0 0
-200 c0 -240 -5 -260 -76 -292 -94 -41 -433 -34 -494 10 -54 39 -60 70 -60
285 l0 197 75 0 75 0 0 -189z m758 176 c6 -7 51 -91 100 -185 l89 -173 67 133
c36 73 80 157 96 186 l30 52 115 0 115 0 0 -258 0 -258 -71 0 -70 0 3 208 c2
114 2 208 0 208 -1 0 -12 -21 -23 -47 -11 -27 -59 -119 -107 -205 -93 -170
-92 -169 -177 -164 -38 2 -41 4 -88 86 -27 47 -76 137 -109 200 -33 63 -61
116 -62 117 0 1 1 -89 2 -200 l4 -202 -71 -1 -71 -1 0 258 0 259 109 0 c77 0
112 -4 119 -13z m1202 -13 c42 -24 60 -56 60 -106 0 -54 -15 -85 -52 -104
l-33 -17 33 -9 c67 -18 93 -124 48 -193 -33 -50 -67 -56 -337 -59 l-248 -2 -3
254 c-2 139 -1 256 2 259 3 2 115 3 250 1 226 -3 248 -5 280 -24z m654 1 c61
-31 81 -65 81 -139 0 -74 -21 -114 -66 -123 -37 -7 -48 -23 -15 -23 15 0 34
-12 51 -31 23 -29 26 -38 23 -103 l-3 -71 -72 -1 -73 0 0 63 c0 98 -8 103
-175 103 l-135 0 0 -86 c0 -85 0 -86 -22 -80 -13 3 -47 6 -75 6 l-53 0 0 256
0 256 248 -4 c223 -3 251 -5 286 -23z m646 -20 l0 -45 -189 0 -189 0 -4 -61
c-1 -33 -1 -63 1 -65 2 -2 85 -4 183 -4 l179 0 -3 -35 -3 -36 -178 -2 -178 -2
-3 -67 -2 -68 193 0 193 0 0 -35 c0 -19 -1 -37 -2 -40 -2 -2 -123 -6 -271 -7
l-267 -3 0 258 0 257 270 0 270 0 0 -45z m198 -174 l2 -213 170 3 170 4 0 -45
0 -45 -245 0 -245 0 0 258 0 258 73 -3 72 -3 3 -214z m532 3 l0 -216 173 3
172 3 0 -44 0 -44 -247 -1 -248 -1 0 258 0 258 75 0 75 0 0 -216z m963 -33
c70 -136 127 -253 127 -258 0 -6 -31 -10 -75 -9 l-74 1 -24 45 -24 45 -164 0
-164 0 -24 -46 -24 -45 -79 0 c-43 0 -78 1 -78 3 0 7 243 489 252 501 7 8 44
12 117 12 l106 0 128 -249z m-3719 -355 c25 -10 37 -24 46 -50 18 -55 9 -66
-50 -66 -44 0 -50 3 -50 20 0 28 -43 43 -109 37 -72 -5 -84 -21 -79 -109 2
-37 7 -70 11 -74 12 -13 120 -16 149 -5 16 6 28 19 30 33 3 24 36 33 86 22 31
-6 31 -63 -2 -101 -24 -28 -25 -28 -158 -31 -198 -4 -228 17 -228 161 0 151
28 174 223 176 64 1 109 -4 131 -13z m436 -2 c56 -23 70 -54 70 -156 0 -145
-30 -168 -210 -167 -63 0 -131 5 -150 12 -51 17 -70 62 -70 164 0 73 3 85 26
112 33 40 67 49 191 50 73 1 114 -4 143 -15z m412 10 c60 -10 88 -43 88 -104
0 -36 -5 -55 -19 -69 -17 -17 -18 -20 -3 -35 11 -10 16 -34 17 -68 l0 -53 -55
0 -55 0 0 37 c0 53 -15 63 -98 63 l-72 0 -3 -52 -3 -53 -55 0 -54 0 0 163 c0
90 3 167 7 170 8 9 255 9 305 1z m413 -4 c57 -13 75 -40 75 -110 0 -97 -36
-119 -199 -120 l-83 0 5 -29 c3 -15 3 -38 0 -50 -5 -20 -11 -22 -57 -19 l-51
3 -3 155 c-1 85 0 160 2 167 6 16 247 18 311 3z m438 -2 c60 -18 77 -53 77
-163 0 -144 -28 -165 -212 -164 -192 1 -221 25 -216 181 3 79 6 90 29 114 15
14 42 30 60 34 53 12 218 11 262 -2z m419 2 c71 -20 103 -107 59 -161 -16 -20
-17 -26 -6 -39 15 -17 25 -81 18 -111 -5 -17 -13 -20 -57 -17 l-51 3 -5 44
c-6 52 -17 58 -107 59 l-63 0 0 -54 0 -54 -55 0 -55 0 0 170 0 170 143 0 c78
0 159 -5 179 -10z m459 -156 c43 -91 79 -167 79 -170 0 -2 -25 -4 -55 -4 -50
0 -56 2 -70 30 l-16 30 -93 0 -94 0 -11 -30 c-9 -28 -13 -30 -65 -30 -31 0
-56 4 -56 9 0 5 35 82 77 170 l76 161 74 0 74 0 80 -166z m527 -6 l2 -168 -55
0 -55 0 0 133 0 132 -70 -3 -70 -4 0 -129 0 -130 -52 3 -53 3 -3 127 -3 127
-62 3 -62 3 -3 38 -3 38 243 -3 243 -3 3 -167z m391 159 c59 -21 75 -54 75
-156 0 -147 -31 -171 -216 -170 -62 0 -129 5 -148 12 -49 17 -70 62 -70 155 0
102 25 146 93 162 51 12 228 10 266 -3z m361 -108 l90 -122 0 122 0 122 53 -3
52 -3 3 -168 2 -168 -87 3 -87 3 -85 114 -86 114 -3 -117 -3 -116 -48 0 c-35
0 -51 4 -55 16 -8 21 -8 253 0 293 l7 31 78 0 79 0 90 -121z m-2552 -305 c16
-11 22 -25 22 -54 0 -29 -6 -43 -22 -54 -30 -21 -121 -21 -142 0 -21 20 -20
83 1 106 21 23 109 25 141 2z m402 -7 c0 -20 4 -22 40 -19 35 4 41 1 50 -23
13 -35 13 -41 -5 -59 -11 -10 -34 -15 -70 -15 l-55 1 0 69 c0 62 2 69 20 69
14 0 20 -7 20 -23z m428 12 c-2 -6 -8 -10 -13 -10 -5 0 -11 4 -13 10 -2 6 4
11 13 11 9 0 15 -5 13 -11z m702 2 c0 -11 -26 -22 -34 -14 -12 12 -5 23 14 23
11 0 20 -4 20 -9z m260 -61 c0 -63 -2 -70 -20 -70 -18 0 -20 7 -20 70 0 63 2
70 20 70 18 0 20 -7 20 -70z m58 58 c-3 -7 -11 -13 -18 -13 -7 0 -15 6 -17 13
-3 7 4 12 17 12 13 0 20 -5 18 -12z m102 3 c0 -5 -10 -12 -22 -16 l-23 -8 23
-4 c25 -5 30 -23 7 -23 -11 0 -15 -11 -15 -40 0 -33 -3 -40 -20 -40 -16 0 -20
7 -20 33 0 18 -6 39 -12 45 -9 9 -10 15 -2 20 6 4 13 15 17 25 7 18 67 25 67
8z m250 -5 c0 -9 -7 -12 -20 -9 -11 3 -17 9 -14 14 8 14 34 10 34 -5z m450
-56 c0 -63 -2 -70 -20 -70 -18 0 -20 7 -20 70 0 63 2 70 20 70 18 0 20 -7 20
-70z m100 61 c0 -5 -10 -12 -22 -16 l-23 -8 23 -4 c27 -5 29 -19 2 -26 -15 -4
-20 -14 -20 -41 0 -25 -4 -36 -15 -36 -9 0 -15 9 -15 25 0 36 -1 39 -12 52
-16 20 20 63 53 63 16 0 29 -4 29 -9z m-480 -21 c0 -5 11 -10 25 -10 14 0 25
-4 25 -10 0 -5 -11 -10 -25 -10 -21 0 -25 -5 -25 -30 0 -34 7 -38 25 -13 10
13 16 15 26 6 21 -17 89 -28 89 -14 0 6 -15 11 -34 11 -41 0 -65 23 -46 45 20
24 120 18 120 -7 0 -5 -19 -6 -47 -2 -33 4 -45 3 -38 -4 6 -6 26 -12 45 -14
30 -3 35 -7 35 -28 0 -23 -4 -25 -49 -28 -27 -2 -53 1 -59 7 -7 7 -14 7 -23 0
-7 -6 -28 -9 -46 -7 -30 3 -33 6 -36 38 -2 19 -8 38 -14 41 -7 5 -6 12 3 23
16 17 49 21 49 6z m-2200 -44 c0 -38 10 -49 34 -40 10 4 16 18 16 40 0 27 4
34 20 34 17 0 20 -7 20 -49 l0 -49 -47 -1 c-76 0 -83 4 -83 55 0 37 3 44 20
44 16 0 20 -7 20 -34z m218 12 c4 -21 -34 -26 -40 -6 -8 23 -28 -4 -28 -38 0
-27 -4 -34 -20 -34 -17 0 -20 7 -20 51 l0 50 52 -3 c41 -2 54 -7 56 -20z m262
-12 c0 -38 10 -49 34 -40 10 4 16 18 16 40 0 27 4 34 20 34 17 0 20 -7 20 -49
l0 -49 -52 0 c-64 -1 -78 10 -78 59 0 32 3 39 20 39 16 0 20 -7 20 -34z m221
17 c13 -15 10 -15 -36 -9 -34 5 -47 4 -40 -2 6 -6 26 -12 45 -14 37 -3 54 -33
28 -49 -23 -15 -94 -10 -109 8 -13 15 -10 15 34 9 31 -5 47 -4 47 3 0 6 -15
11 -34 11 -41 0 -65 23 -46 45 17 21 94 20 111 -2z m59 -33 c0 -38 -4 -50 -15
-50 -11 0 -15 12 -15 50 0 38 4 50 15 50 11 0 15 -12 15 -50z m148 -3 c3 -42
1 -48 -15 -45 -13 2 -17 11 -15 32 4 32 -14 49 -38 36 -12 -6 -15 -18 -12 -39
4 -26 1 -31 -17 -31 -18 0 -21 6 -21 49 l0 48 58 -1 57 -1 3 -48z m140 41 c7
-7 12 -24 12 -38 0 -37 -18 -50 -65 -50 -47 0 -65 13 -65 50 0 37 18 50 65 50
23 0 46 -5 53 -12z m143 -5 c13 -15 10 -15 -35 -9 -33 5 -46 4 -41 -3 3 -6 22
-11 41 -11 22 0 37 -6 40 -15 11 -27 -16 -45 -67 -45 -49 0 -72 15 -48 32 11
7 11 11 2 15 -7 2 -13 13 -13 23 0 22 13 28 66 29 27 1 46 -5 55 -16z m135 1
c18 -14 16 -15 -28 -9 -31 4 -48 2 -48 -4 0 -6 18 -11 40 -11 45 0 61 -19 40
-46 -19 -22 -114 -16 -118 9 -3 15 0 16 23 7 34 -13 65 -13 65 0 0 6 -13 10
-29 10 -16 0 -36 3 -45 6 -16 6 -22 35 -9 47 12 13 89 7 109 -9z m134 -34 c0
-43 -3 -50 -20 -50 -17 0 -20 7 -20 50 0 43 3 50 20 50 17 0 20 -7 20 -50z
m131 33 c13 -15 10 -15 -36 -9 -34 5 -47 4 -40 -2 6 -6 26 -12 45 -14 37 -3
54 -33 28 -49 -23 -15 -94 -10 -109 8 -13 15 -10 15 34 9 31 -5 47 -4 47 3 0
6 -13 11 -29 11 -56 0 -77 20 -49 48 18 18 93 15 109 -5z m189 -33 c0 -43 -3
-50 -20 -50 -17 0 -20 7 -20 50 0 43 3 50 20 50 17 0 20 -7 20 -50z m219 41
c14 -9 18 -62 6 -81 -10 -16 -92 -12 -109 6 -37 36 -7 84 52 84 20 0 43 -4 51
-9z m131 -41 c0 -38 -4 -50 -15 -50 -14 0 -17 14 -17 65 0 30 2 35 17 35 11 0
15 -12 15 -50z m377 42 c6 -4 13 -16 15 -27 3 -17 -3 -20 -45 -23 -28 -2 -45
-7 -41 -13 3 -6 25 -7 52 -4 44 6 46 5 28 -9 -26 -21 -90 -20 -110 0 -37 36
-7 84 52 84 20 0 42 -4 49 -8z"/>
<path d="M3372 1528 l3 -63 132 0 c150 1 163 6 163 66 0 28 -5 41 -19 49 -11
5 -79 10 -151 10 l-131 0 3 -62z"/>
<path d="M3375 1382 c-3 -3 -5 -34 -5 -70 l0 -64 144 3 c158 5 176 11 176 63
0 43 -11 56 -56 67 -40 9 -250 10 -259 1z"/>
<path d="M4030 1505 l0 -85 119 0 c65 0 132 5 149 11 57 20 65 119 11 146 -15
8 -70 13 -151 13 l-128 0 0 -85z"/>
<path d="M6457 1465 c-31 -63 -57 -117 -57 -120 0 -3 54 -5 120 -5 66 0 120 2
120 5 0 10 -115 235 -120 235 -3 0 -31 -52 -63 -115z"/>
<path d="M3254 1014 c-26 -6 -34 -30 -34 -104 0 -81 5 -85 105 -85 65 0 88 4
95 15 13 20 13 157 0 165 -13 8 -139 15 -166 9z"/>
<path d="M3680 970 l0 -40 79 0 c85 0 105 10 99 52 -3 22 -8 23 -90 26 l-88 3
0 -41z"/>
<path d="M4097 1013 c-4 -3 -7 -24 -7 -45 l0 -38 80 0 c67 0 81 3 89 18 14 27
3 59 -22 66 -30 8 -132 7 -140 -1z"/>
<path d="M4528 1013 c-23 -4 -28 -10 -34 -49 -7 -46 -1 -121 11 -132 11 -12
139 -14 168 -3 26 10 27 13 27 90 0 44 -4 82 -10 86 -13 8 -129 14 -162 8z"/>
<path d="M4940 970 l0 -40 73 0 c87 0 113 14 103 53 -6 27 -8 27 -91 27 l-85
0 0 -40z"/>
<path d="M5427 940 l-26 -60 60 0 59 0 -30 60 c-17 33 -32 60 -34 60 -1 0 -14
-27 -29 -60z"/>
<path d="M6320 1012 c-19 -6 -26 -17 -33 -51 -13 -66 -1 -128 26 -135 35 -9
123 -7 151 4 25 9 26 13 26 89 0 44 -4 82 -10 86 -16 10 -133 15 -160 7z"/>
<path d="M4224 636 c-3 -8 -4 -25 -2 -38 2 -19 10 -23 46 -26 l42 -3 0 40 0
41 -40 0 c-26 0 -43 -5 -46 -14z"/>
<path d="M4753 613 c-19 -7 -16 -43 3 -50 23 -9 48 25 33 44 -12 14 -16 15
-36 6z"/>
<path d="M5385 610 c-4 -6 5 -10 20 -10 15 0 24 4 20 10 -3 6 -12 10 -20 10
-8 0 -17 -4 -20 -10z"/>
<path d="M5387 569 c8 -8 19 -8 40 -1 28 10 28 10 -11 11 -29 1 -37 -2 -29
-10z"/>
<path d="M5515 570 c3 -5 17 -10 31 -10 13 0 24 5 24 10 0 6 -14 10 -31 10
-17 0 -28 -4 -24 -10z"/>
<path d="M6335 610 c-4 -6 5 -10 19 -10 14 0 26 5 26 10 0 6 -9 10 -19 10 -11
0 -23 -4 -26 -10z"/>
<path d="M6338 568 c8 -8 20 -8 44 -1 l33 11 -44 1 c-34 1 -42 -2 -33 -11z"/>
<path d="M6845 610 c-4 -6 5 -10 19 -10 14 0 26 5 26 10 0 6 -9 10 -19 10 -11
0 -23 -4 -26 -10z"/>
</g>
</svg>
